<svg version="1.0" xmlns="http://www.w3.org/2000/svg"
viewBox="0 0 300.000000 300.000000"
 preserveAspectRatio="xMidYMid meet" fill="currentColor">
<g transform="translate(0.000000,300.000000) scale(0.100000,-0.100000)">
<path d="M496 2779 c-15 -18 -26 -43 -26 -60 0 -16 21 -112 46 -212 l46 -182
-26 -140 c-91 -491 -88 -933 10 -1390 l25 -120 -49 -200 c-52 -208 -53 -225
-15 -267 15 -17 75 -18 994 -18 l977 0 26 31 c15 18 26 43 26 60 0 16 -20 111
-45 210 l-46 181 20 97 c97 473 95 970 -5 1436 l-26 120 47 185 c54 212 56
242 24 276 l-22 24 -978 0 -977 0 -26 -31z m1635 -935 c34 -36 31 -99 -5 -131
l-27 -23 -599 0 -599 0 -28 24 c-36 31 -37 94 -3 131 29 31 24 31 701 27 l536
-2 24 -26z m-4 -558 c38 -33 39 -95 2 -131 l-25 -26 -604 1 -604 0 -24 24
c-36 35 -35 101 2 133 l27 23 599 0 599 0 28 -24z"/>
</g>
</svg>
