<svg version="1.0" xmlns="http://www.w3.org/2000/svg"
 width="300.000000pt" height="273.000000pt" viewBox="0 0 300.000000 273.000000"
 preserveAspectRatio="xMidYMid meet">
<g transform="translate(0.000000,273.000000) scale(0.100000,-0.100000)"
fill="currentColor">
<path d="M1565 2695 c-331 -38 -765 -103 -765 -114 0 -4 37 -26 83 -50 45 -24
122 -69 171 -98 l90 -55 135 26 c384 73 628 102 891 105 90 1 166 3 168 5 5 6
-204 125 -272 156 -126 57 -194 60 -501 25z"/>
<path d="M490 2510 c-217 -40 -359 -90 -407 -142 -34 -36 -61 -106 -68 -178
-8 -81 10 -251 35 -334 20 -62 20 -63 0 -103 -55 -114 -51 -357 9 -513 l21
-54 -25 -61 c-45 -113 -58 -280 -30 -388 32 -122 73 -172 255 -311 88 -68 102
-76 97 -54 -18 69 -27 178 -27 322 l0 158 -63 68 c-35 38 -79 97 -97 132 l-34
63 63 -55 c34 -30 78 -68 97 -83 l34 -29 0 269 0 269 -41 39 c-41 40 -115 138
-139 185 -14 27 -23 32 124 -85 23 -19 46 -35 49 -35 3 0 7 84 9 188 l3 188
33 67 c35 71 89 121 178 165 55 28 252 95 342 117 l74 18 -109 64 c-149 89
-238 133 -265 132 -13 0 -66 -9 -118 -19z"/>
<path d="M2080 2404 c-170 -13 -305 -29 -437 -50 -145 -23 -333 -61 -341 -69
-2 -2 16 -14 40 -26 146 -74 320 -223 372 -318 49 -91 58 -140 63 -359 l5
-203 27 5 c14 3 127 22 251 41 300 47 629 102 682 114 23 6 44 8 46 7 6 -6
-111 -74 -182 -105 -136 -62 -287 -98 -606 -146 -96 -14 -185 -28 -197 -31
l-23 -4 0 -245 c0 -208 2 -245 15 -245 17 0 391 57 727 110 136 22 253 40 260
40 38 -1 -144 -98 -254 -134 -100 -34 -225 -60 -478 -101 -118 -19 -227 -38
-242 -41 l-26 -5 -4 -232 c-3 -183 -8 -241 -21 -277 -9 -24 -15 -45 -14 -46 3
-3 472 71 617 96 202 36 404 90 467 125 109 60 152 146 160 326 6 117 -11 228
-48 318 l-21 51 25 68 c60 163 59 343 -5 484 l-21 47 21 53 c34 83 44 151 40
256 -3 86 -7 105 -35 163 -19 39 -48 77 -70 95 -53 43 -236 164 -308 205 l-60
34 -190 1 c-104 1 -210 0 -235 -2z"/>
<path d="M954 2215 c-203 -52 -334 -107 -403 -169 -13 -11 -34 -43 -47 -71
-23 -47 -24 -60 -24 -257 l0 -207 68 -39 c96 -57 227 -121 301 -149 127 -48
225 -47 571 2 96 14 188 28 203 31 l28 6 -1 176 c-1 98 -6 200 -11 227 -15 81
-63 168 -126 225 -96 88 -367 260 -407 260 -12 -1 -80 -16 -152 -35z"/>
<path d="M480 1135 l0 -264 58 -34 c91 -55 215 -115 299 -144 116 -40 257 -37
558 10 127 21 236 37 243 37 9 0 12 57 12 250 l0 250 -22 -5 c-64 -14 -418
-57 -518 -62 -97 -5 -128 -3 -198 15 -83 21 -241 95 -365 170 l-67 41 0 -264z"/>
<path d="M480 612 c0 -82 5 -173 10 -202 13 -69 50 -148 85 -183 81 -80 295
-191 402 -209 78 -13 175 -7 470 28 129 15 144 19 158 40 34 53 45 133 45 336
0 109 -1 198 -3 198 -2 0 -93 -14 -203 -31 -116 -18 -259 -33 -344 -36 -129
-5 -154 -3 -225 16 -88 24 -231 89 -316 143 -29 19 -60 38 -66 42 -10 6 -13
-25 -13 -142z"/>
</g>
</svg>
