<svg xmlns="http://www.w3.org/2000/svg"
 width="206.000000pt" height="300.000000pt" viewBox="0 0 206.000000 300.000000"
 preserveAspectRatio="xMidYMid meet" fill="currentColor">
<g transform="translate(0.000000,300.000000) scale(0.100000,-0.100000)">
<path d="M845 2909 c-335 -21 -600 -104 -712 -222 -41 -44 -53 -63 -58 -101
-9 -56 12 -121 50 -156 l25 -23 0 -218 0 -218 48 -21 c135 -60 337 -111 524
-131 130 -15 501 -5 618 15 178 31 351 76 467 123 l63 25 0 213 c0 204 1 213
21 231 29 25 59 91 59 129 0 73 -77 168 -177 218 -120 61 -366 120 -543 131
-200 13 -249 14 -385 5z m537 -149 c209 -35 392 -109 427 -171 22 -39 7 -74
-45 -110 -87 -59 -254 -112 -449 -141 -119 -17 -492 -17 -610 1 -385 57 -590
177 -472 277 92 78 338 148 592 168 122 9 443 -4 557 -24z"/>
<path d="M967 2449 c-27 -4 -58 -15 -68 -25 -18 -16 -18 -19 -3 -35 34 -37
151 -43 212 -10 68 36 -32 86 -141 70z"/>
<path d="M117 1919 c-9 -5 -24 -24 -33 -41 -23 -45 -12 -94 30 -137 l36 -36 2
-260 3 -259 84 -34 c319 -127 739 -161 1141 -91 136 23 305 68 410 107 l75 28
3 257 2 257 38 34 c32 30 37 40 37 80 0 38 -5 51 -32 78 l-32 32 -143 -48
c-498 -164 -1070 -164 -1491 0 -51 20 -96 38 -102 40 -5 2 -18 -1 -28 -7z"/>
<path d="M1805 1128 c-432 -160 -935 -192 -1360 -86 -90 22 -221 67 -277 93
-45 22 -60 17 -82 -30 -24 -50 -15 -93 29 -135 l35 -34 0 -260 0 -260 -35 -36
c-102 -105 -21 -207 209 -265 189 -48 323 -60 686 -60 226 0 366 5 430 14 330
46 488 110 506 206 7 38 -13 84 -51 113 l-25 20 0 263 0 263 38 39 c31 32 37
45 37 82 0 36 -6 50 -30 74 l-30 29 -80 -30z"/>
</g>
</svg>
