<svg version="1.0" xmlns="http://www.w3.org/2000/svg"
 width="300.000000pt" height="300.000000pt" viewBox="0 0 300.000000 300.000000"
 preserveAspectRatio="xMidYMid meet">
<g transform="translate(0.000000,300.000000) scale(0.100000,-0.100000)"
fill="currentColor" stroke="none">
<path d="M405 2988 c-41 -24 -44 -38 -45 -190 l0 -148 -141 0 c-141 0 -171 -6
-196 -39 -13 -17 -19 -414 -7 -446 14 -35 58 -45 204 -45 l140 0 0 -970 0
-970 -120 0 c-129 0 -180 -12 -199 -48 -19 -36 -13 -72 18 -103 l29 -29 622 0
622 0 29 29 c32 33 36 58 14 100 -20 41 -61 51 -196 51 l-119 0 0 970 0 970
570 0 570 0 0 -118 0 -119 -296 -253 c-162 -140 -299 -261 -305 -271 -19 -36
-10 -76 22 -103 l31 -26 634 0 c538 0 639 2 663 15 32 16 41 33 41 79 0 40 1
38 -340 331 l-265 227 -5 184 -5 184 -198 197 -197 198 -460 3 -460 3 0 145 0
146 -29 29 -29 29 -289 0 c-198 -1 -294 -4 -308 -12z m475 -253 l0 -85 -175 0
-175 0 0 85 0 85 175 0 175 0 0 -85z m-520 -350 l0 -85 -90 0 -90 0 0 85 0 85
90 0 90 0 0 -85z m520 0 l0 -85 -175 0 -175 0 0 85 0 85 175 0 175 0 0 -85z
m1110 0 l85 -85 -508 0 -507 0 0 85 0 85 423 0 422 0 85 -85z m-1110 -380 c0
-63 -1 -115 -3 -115 -1 0 -54 52 -117 115 l-115 115 118 0 117 0 0 -115z m-42
-336 c-6 -13 -293 -309 -300 -309 -5 0 -8 141 -8 312 l0 313 155 -155 c85 -85
154 -158 153 -161z m1781 -220 l44 -39 -372 0 -372 0 186 160 186 160 142
-122 c78 -66 162 -138 186 -159z m-1743 -597 c-3 -2 -71 62 -152 142 l-146
147 18 22 c11 12 78 82 149 155 l130 133 3 -297 c1 -163 0 -299 -2 -302z
m-186 -67 l144 -144 -144 -146 c-79 -80 -148 -145 -152 -145 -4 0 -8 131 -8
290 0 160 3 290 8 290 4 0 72 -65 152 -145z m190 -475 l0 -130 -132 0 -133 0
130 130 c71 72 131 130 132 130 2 0 3 -58 3 -130z"/>
<path d="M1702 1027 c-22 -23 -22 -24 -22 -499 0 -454 1 -477 19 -499 l19 -24
561 -3 c380 -2 568 1 581 8 50 27 51 37 48 529 l-3 459 -24 26 -24 26 -567 0
-567 0 -21 -23z m1028 -497 l0 -350 -90 0 -90 0 0 235 0 236 -25 24 c-24 25
-24 25 -235 25 -211 0 -211 0 -235 -25 l-25 -24 0 -236 0 -235 -90 0 -90 0 0
350 0 350 440 0 440 0 0 -350z m-350 -175 l0 -175 -90 0 -90 0 0 175 0 175 90
0 90 0 0 -175z"/>
</g>
</svg>
