<svg version="1.0" xmlns="http://www.w3.org/2000/svg"
 width="300.000000pt" height="300.000000pt" viewBox="0 0 300.000000 300.000000"
 preserveAspectRatio="xMidYMid meet">
<g transform="translate(0.000000,300.000000) scale(0.100000,-0.100000)"
fill="currentColor">
<path d="M973 2602 c-32 -37 -82 -98 -112 -135 l-54 -67 -88 0 -87 0 -72 -80
-72 -80 -62 0 -61 -1 -85 -79 -85 -79 640 -1 641 0 53 114 c30 63 54 118 54
121 1 4 -10 35 -23 71 l-24 64 -81 0 -81 0 -72 110 -72 110 -99 0 -100 0 -58
-68z"/>
<path d="M1640 2130 l-73 -160 -784 0 -783 0 0 -105 0 -105 80 0 80 0 0 -163
0 -162 97 -23 c458 -109 809 -318 889 -527 l17 -45 199 2 199 3 23 65 c12 36
38 90 58 121 39 61 119 136 155 145 l23 6 0 449 0 449 473 0 472 0 77 105 77
105 -603 0 -603 0 -73 -160z"/>
<path d="M1930 1590 l0 -380 98 0 c173 0 283 -41 379 -142 l51 -54 28 20 c26
19 45 21 246 24 l218 3 0 279 0 279 -88 133 c-49 73 -101 152 -115 176 l-27
42 -395 0 -395 0 0 -380z m804 131 l56 -88 0 -127 0 -126 -215 0 -215 0 0 215
0 215 159 0 159 0 56 -89z"/>
<path d="M549 1066 c-107 -41 -184 -108 -229 -201 -22 -43 -25 -64 -25 -155 0
-93 3 -112 27 -162 107 -229 423 -283 601 -103 26 27 60 74 75 104 24 50 27
67 27 161 0 100 -1 108 -34 168 -41 76 -104 135 -179 170 -68 32 -203 41 -263
18z m170 -250 c40 -21 61 -59 61 -110 0 -82 -79 -141 -155 -116 -131 43 -104
238 33 240 18 0 46 -7 61 -14z"/>
<path d="M1917 1056 c-147 -61 -237 -194 -237 -351 0 -109 42 -199 129 -278
71 -63 141 -88 249 -88 72 0 93 4 147 29 82 39 135 88 174 162 93 175 37 391
-129 495 -96 60 -232 72 -333 31z m204 -249 c38 -25 64 -84 55 -121 -10 -39
-54 -85 -95 -97 -95 -28 -183 80 -140 173 16 35 69 68 110 68 21 0 50 -9 70
-23z"/>
<path d="M2536 934 c-12 -11 -16 -35 -16 -89 0 -109 -9 -105 239 -105 248 0
241 -3 241 107 0 105 6 103 -243 103 -174 0 -208 -2 -221 -16z"/>
</g>
</svg>
