<svg version="1.0" xmlns="http://www.w3.org/2000/svg"
 width="300.000000pt" height="260.000000pt" viewBox="0 0 300.000000 260.000000"
 preserveAspectRatio="xMidYMid meet">
<g transform="translate(0.000000,260.000000) scale(0.100000,-0.100000)"
fill="currentColor" stroke="none">
<path d="M1530 2524 c-80 -30 -257 -95 -395 -145 -487 -177 -1037 -381 -1081
-399 l-44 -19 2 -668 3 -668 315 -115 c173 -64 479 -176 680 -250 201 -73 433
-159 517 -190 84 -32 155 -55 158 -52 8 8 6 2562 -2 2561 -5 0 -73 -25 -153
-55z m-36 -300 c3 -9 6 -428 6 -933 0 -700 -3 -920 -12 -929 -15 -15 -51 -15
-66 0 -18 18 -17 1864 1 1871 27 11 65 6 71 -9z m-290 -90 c14 -6 16 -89 16
-840 l0 -834 -27 -6 c-62 -16 -58 -67 -61 837 -1 453 0 830 3 837 5 13 42 16
69 6z m-266 -831 l2 -732 -21 -12 c-16 -8 -28 -8 -45 0 l-24 11 0 723 c0 563
3 726 12 735 7 7 26 12 43 10 l30 -3 3 -732z m-294 631 c14 -6 16 -71 16 -640
l0 -634 -24 -6 c-13 -3 -34 -1 -45 6 -21 11 -21 12 -21 633 0 471 3 626 12
635 13 13 37 15 62 6z m-266 -636 l2 -538 -22 -1 c-36 -2 -52 2 -60 14 -4 7
-8 245 -8 529 0 482 1 518 18 527 9 6 28 10 42 8 l25 -2 3 -537z"/>
<path d="M1780 1294 l0 -1286 23 5 c12 3 69 17 127 32 58 14 121 30 140 35 19
4 62 15 95 24 33 8 211 52 395 96 184 44 352 85 373 91 l37 10 -2 996 -3 996
-580 143 c-319 79 -586 143 -592 144 -10 0 -13 -264 -13 -1286z m643 1039 c4
-2 7 -469 7 -1037 l0 -1034 -40 -10 c-21 -5 -42 -7 -45 -4 -3 3 -5 477 -5
1054 l0 1049 38 -7 c20 -4 40 -9 45 -11z m-235 -855 c8 -8 12 -66 12 -195 l0
-183 -24 -6 c-14 -3 -34 -3 -45 1 -20 6 -21 13 -21 190 0 165 2 185 18 194 23
14 45 14 60 -1z m447 -60 c3 -13 4 -84 3 -158 l-3 -135 -40 0 -40 0 -3 135
c-4 172 -2 180 43 180 28 0 36 -5 40 -22z"/>
</g>
</svg>
