<?xml version="1.0" standalone="no"?>
<!DOCTYPE svg PUBLIC "-//W3C//DTD SVG 20010904//EN"
 "http://www.w3.org/TR/2001/REC-SVG-20010904/DTD/svg10.dtd">
<svg version="1.0" xmlns="http://www.w3.org/2000/svg"
 width="300.000000pt" height="267.000000pt" viewBox="0 0 300.000000 267.000000"
 preserveAspectRatio="xMidYMid meet">
<metadata>
Created by potrace 1.10, written by Peter Selinger 2001-2011
</metadata>
<g transform="translate(0.000000,267.000000) scale(0.100000,-0.100000)"
fill="#000000" stroke="none">
<path d="M1130 2641 c-103 -22 -172 -88 -204 -195 -8 -25 -91 -147 -217 -319
-279 -380 -266 -362 -243 -353 175 68 337 34 471 -101 36 -35 66 -63 68 -61 6
5 183 376 207 431 18 42 28 52 73 72 113 50 179 145 179 260 0 68 -28 142 -72
188 -58 62 -175 97 -262 78z m115 -155 c66 -28 87 -128 40 -185 -75 -88 -207
-42 -209 73 -1 31 5 53 20 73 39 52 87 65 149 39z"/>
<path d="M1510 2473 c0 -4 5 -28 11 -52 19 -85 -18 -196 -93 -277 -28 -30 -36
-45 -27 -48 8 -2 109 -32 224 -65 303 -88 298 -87 306 -102 4 -8 15 -36 24
-63 19 -53 154 -239 193 -264 56 -37 132 -8 132 50 0 16 -25 82 -55 145 -30
64 -55 129 -55 145 0 38 48 88 85 88 39 0 58 -13 105 -77 24 -32 68 -86 98
-121 44 -51 60 -63 80 -60 27 3 68 52 78 95 8 31 -106 239 -169 309 -80 88
-190 116 -299 74 -29 -11 -58 -20 -64 -20 -10 0 -543 232 -566 247 -5 2 -8 1
-8 -4z"/>
<path d="M519 1717 c-61 -17 -142 -70 -178 -116 -77 -98 -90 -167 -91 -511 0
-129 -3 -270 -7 -312 l-6 -78 384 0 385 0 -4 193 c-2 105 -7 276 -11 379 -7
182 -8 188 -39 251 -61 123 -175 198 -312 204 -42 1 -96 -3 -121 -10z m171
-222 c93 -48 92 -202 -1 -251 -125 -64 -257 70 -191 194 36 66 124 92 192 57z"/>
<path d="M1543 1468 c-20 -22 -21 -37 -27 -515 l-7 -493 686 0 685 0 0 490 0
491 -25 24 -24 25 -634 0 -634 0 -20 -22z m570 -201 c7 -30 17 -42 50 -58 36
-19 44 -20 80 -8 49 16 62 9 99 -61 28 -53 28 -54 9 -74 -51 -57 -55 -116 -11
-171 17 -21 30 -40 30 -43 0 -11 -61 -111 -76 -123 -12 -10 -22 -10 -49 0 -29
10 -39 9 -78 -10 -37 -18 -47 -29 -54 -58 l-9 -36 -78 0 -79 0 -12 35 c-8 24
-24 42 -51 58 -37 21 -51 22 -100 7 -17 -5 -28 3 -56 42 -50 70 -52 81 -23
119 36 47 36 130 -1 173 l-25 30 35 55 c19 29 40 57 46 61 7 4 29 2 49 -5 33
-11 43 -10 78 9 28 14 43 29 48 48 12 49 22 54 99 51 l70 -3 9 -38z m598 -57
c21 -12 25 -50 7 -68 -16 -16 -220 -16 -236 0 -7 7 -12 21 -12 33 0 12 5 26
12 33 15 15 201 16 229 2z m9 -235 c7 -8 10 -25 6 -40 -6 -25 -7 -25 -119 -25
-115 0 -137 6 -137 40 0 33 22 40 131 40 82 0 109 -3 119 -15z m-9 -205 c25
-14 25 -56 0 -70 -28 -14 -214 -13 -229 2 -18 18 -15 55 6 67 22 14 198 14
223 1z"/>
<path d="M1980 1087 c-76 -26 -108 -143 -55 -206 66 -78 181 -58 222 38 42 98
-63 203 -167 168z"/>
<path d="M59 601 l-29 -29 0 -246 0 -246 29 -32 29 -33 567 -3 566 -2 -3 286
-3 286 -28 24 -28 24 -535 0 -536 0 -29 -29z"/>
<path d="M1360 200 l0 -190 768 0 c742 0 768 1 799 20 17 10 36 27 42 37 5 11
11 86 13 168 l3 150 -812 3 -813 2 0 -190z m768 54 c42 -29 18 -104 -35 -104
-27 0 -63 32 -63 57 0 22 39 63 60 63 8 0 26 -7 38 -16z m301 -11 c23 -28 20
-59 -7 -80 -56 -44 -123 36 -75 89 23 26 58 22 82 -9z m289 11 c42 -29 18
-104 -35 -104 -27 0 -63 33 -63 58 0 24 36 62 58 62 10 0 28 -7 40 -16z"/>
</g>
</svg>
