<svg xmlns="http://www.w3.org/2000/svg"
 viewBox="0 0 300 300"
 preserveAspectRatio="xMidYMid meet"
 fill="currentColor">
<g transform="translate(0,300) scale(0.1,-0.1)">
<path d="M1280 2790 l0 -60 220 0 220 0 0 60 0 60 -220 0 -220 0 0 -60z"/>
<path d="M689 2676 c-75 -20 -139 -73 -176 -145 l-33 -63 0 -204 0 -204 310 0
310 0 0 315 0 315 -182 -1 c-113 0 -201 -5 -229 -13z"/>
<path d="M1190 2375 l0 -315 310 0 310 0 0 315 0 315 -310 0 -310 0 0 -315z"/>
<path d="M1900 2376 l0 -316 310 0 310 0 0 203 0 204 -31 61 c-32 64 -80 110
-146 139 -31 14 -77 18 -240 21 l-203 4 0 -316z"/>
<path d="M480 1665 l0 -315 310 0 310 0 0 315 0 315 -310 0 -310 0 0 -315z"/>
<path d="M1190 1665 l0 -315 310 0 310 0 0 315 0 315 -310 0 -310 0 0 -315z"/>
<path d="M1900 1665 l0 -315 310 0 310 0 0 315 0 315 -310 0 -310 0 0 -315z"/>
<path d="M480 1072 c0 -223 8 -262 64 -329 19 -21 58 -52 87 -68 l54 -30 208
-3 207 -3 0 315 0 316 -310 0 -310 0 0 -198z"/>
<path d="M1190 955 l0 -315 310 0 310 0 0 315 0 315 -310 0 -310 0 0 -315z"/>
<path d="M1900 954 l0 -315 208 3 207 3 54 30 c29 16 68 47 87 68 56 67 64
106 64 329 l0 198 -310 0 -310 0 0 -316z"/>
<path d="M480 540 l0 -60 1020 0 1020 0 0 60 0 60 -1020 0 -1020 0 0 -60z"/>
<path d="M540 375 l0 -85 65 0 65 0 0 85 0 85 -65 0 -65 0 0 -85z"/>
<path d="M1434 447 c-3 -8 -4 -45 -2 -83 l3 -69 65 0 65 0 0 80 0 80 -63 3
c-46 2 -64 -1 -68 -11z"/>
<path d="M2330 375 l0 -85 65 0 65 0 0 85 0 85 -65 0 -65 0 0 -85z"/>
<path d="M480 210 l0 -60 1020 0 1020 0 0 60 0 60 -1020 0 -1020 0 0 -60z"/>
</g>
</svg>
