<svg xmlns="http://www.w3.org/2000/svg"
 viewBox="0 0 300 195"
 preserveAspectRatio="xMidYMid meet"
 fill="currentColor">
<g transform="translate(0,195) scale(0.1,-0.1)">
<path d="M476 1811 c-6 -10 -31 -78 -120 -331 -160 -459 -216 -621 -216 -630
0 -6 88 -10 229 -10 210 0 230 1 235 18 12 40 216 934 216 948 0 12 -28 14
-169 14 -94 0 -172 -4 -175 -9z"/>
<path d="M880 1816 c0 -7 -50 -245 -124 -595 -42 -195 -76 -360 -76 -368 0
-11 43 -13 247 -11 l248 3 41 480 c23 264 40 483 37 488 -4 7 -373 11 -373 3z"/>
<path d="M1315 1808 c-3 -11 -65 -919 -65 -955 0 -10 55 -13 240 -13 l240 0 0
22 c0 54 -51 934 -55 946 -6 18 -354 18 -360 0z"/>
<path d="M1737 1813 c-4 -9 61 -915 69 -950 l4 -23 255 0 c140 0 255 2 255 4
0 9 -191 942 -196 959 -5 15 -23 17 -194 17 -104 0 -191 -3 -193 -7z"/>
<path d="M2180 1815 c0 -5 33 -155 164 -740 l51 -230 248 -3 c136 -1 247 1
247 5 -1 5 -77 224 -169 488 l-168 480 -186 3 c-103 1 -187 0 -187 -3z"/>
<path d="M130 420 l0 -310 180 0 180 0 0 185 0 185 423 -2 422 -3 3 -182 2
-183 175 0 175 0 0 185 0 185 425 0 425 0 0 -185 0 -185 175 0 175 0 0 310 0
310 -1380 0 -1380 0 0 -310z"/>
</g>
</svg>
