<svg xmlns="http://www.w3.org/2000/svg"
width="225.000000pt" height="225.000000pt" viewBox="0 0 225.000000 225.000000"
preserveAspectRatio="xMidYMid meet" fill="currentColor">
<g transform="translate(0.000000,225.000000) scale(0.100000,-0.100000)">
<path d="M1032 2146 c-59 -20 -105 -57 -125 -103 -9 -21 -50 -240 -92 -488
-42 -247 -79 -461 -82 -474 -5 -19 2 -15 36 22 90 97 211 149 351 150 143 0
246 -39 343 -131 49 -47 58 -52 53 -32 -3 14 -40 230 -82 480 -42 250 -82 466
-89 480 -17 32 -51 63 -95 85 -46 24 -162 29 -218 11z"/>
<path d="M1496 1512 c-3 -2 -3 -16 -1 -31 86 -509 98 -597 87 -659 -6 -35 -19
-80 -29 -101 l-19 -38 41 5 c48 5 147 -18 206 -49 23 -11 64 -42 92 -67 34
-32 48 -41 44 -27 -4 11 -54 213 -112 450 -111 453 -113 458 -178 492 -30 15
-123 33 -131 25z"/>
<path d="M645 1491 c-78 -36 -77 -33 -196 -502 -60 -239 -112 -443 -115 -454
-4 -12 7 -5 29 20 70 80 219 143 313 132 l42 -4 -19 31 c-41 70 -39 131 11
438 26 155 50 300 53 321 l6 37 -42 0 c-23 0 -60 -9 -82 -19z"/>
<path d="M1003 1175 c-114 -31 -196 -93 -239 -181 -22 -45 -26 -64 -22 -116 2
-35 12 -80 22 -100 60 -124 240 -210 402 -194 203 21 347 145 346 300 0 76
-18 122 -73 181 -97 105 -282 151 -436 110z"/>
<path d="M573 615 c-75 -21 -122 -47 -164 -92 -53 -55 -72 -99 -72 -164 3
-236 365 -357 585 -194 136 100 140 280 8 385 -22 18 -64 41 -93 52 -69 27
-195 33 -264 13z"/>
<path d="M1465 617 c-70 -19 -124 -49 -166 -94 -53 -55 -72 -99 -72 -163 0
-99 59 -179 171 -232 128 -61 303 -45 414 37 171 126 124 358 -89 439 -62 23
-193 30 -258 13z"/>
</g>
</svg>
