<svg xmlns="http://www.w3.org/2000/svg"
 viewBox="0 0 300 300"
 preserveAspectRatio="xMidYMid meet"
 fill="currentColor">
<g transform="translate(0,300) scale(0.1,-0.1)">
<path d="M726 2985 c-291 -61 -514 -232 -637 -490 -134 -280 -112 -593 60
-860 33 -52 191 -217 600 -629 306 -307 626 -625 713 -706 141 -133 166 -152
260 -199 147 -74 232 -94 398 -95 111 0 150 4 218 22 264 71 459 235 577 484
58 122 78 214 79 363 1 144 -13 222 -62 342 -62 152 -86 179 -811 904 -714
714 -740 737 -888 802 -150 66 -362 92 -507 62z m355 -191 c79 -24 165 -70
234 -125 85 -68 644 -633 620 -626 -11 3 -71 24 -134 47 -196 70 -353 107
-606 140 -224 30 -343 76 -453 176 -54 48 -102 131 -102 176 0 123 142 226
316 227 39 1 95 -6 125 -15z m-606 -207 c0 -91 3 -107 27 -153 40 -77 99 -146
169 -198 132 -100 261 -146 488 -176 261 -35 461 -84 654 -160 130 -52 297
-132 292 -140 -3 -4 -40 -10 -84 -13 -324 -25 -633 -279 -739 -607 -29 -89
-46 -229 -38 -314 l7 -71 -469 470 c-503 504 -515 518 -570 674 -25 69 -27 89
-27 221 0 132 2 152 27 221 39 110 92 194 174 276 40 40 77 73 81 73 4 0 8
-46 8 -103z m1771 -1018 c268 -47 490 -254 560 -522 20 -79 20 -246 -1 -328
-23 -89 -85 -213 -142 -284 -122 -151 -327 -220 -500 -167 -189 58 -354 240
-386 425 -41 240 125 495 339 523 120 15 287 -76 347 -191 60 -112 -7 -306
-126 -367 -93 -47 -206 13 -207 110 0 39 20 92 43 111 27 21 22 87 -8 116 -91
92 -238 -102 -205 -272 39 -207 251 -315 441 -226 150 70 259 248 259 424 0
136 -56 246 -175 342 -322 259 -732 109 -864 -317 -29 -95 -29 -257 0 -352 34
-113 87 -202 169 -286 41 -43 71 -78 67 -78 -5 0 -41 17 -80 37 -86 45 -206
161 -256 246 -64 108 -93 208 -98 337 -6 134 9 212 61 323 61 133 164 244 296
320 128 74 311 104 466 76z"/>
</g>
</svg>
